<?xml version="1.0" encoding="utf-8"?>
<!-- Generator: Adobe Illustrator 25.0.1, SVG Export Plug-In . SVG Version: 6.00 Build 0)  -->
<svg id="Layer_2" xmlns="http://www.w3.org/2000/svg" x="0px" y="0px"
	 viewBox="0 0 1024 1024" xml:space="preserve">
<style type="text/css">
	.st0{fill:#FFFFFF;}
	.st1{fill:#63625F;}
	.st2{fill:#C6C6C5;}
	.st3{fill:#EDEDED;stroke:#898989;stroke-width:5;stroke-miterlimit:10;}
	.st4{fill:#8E8E8E;}
	.st5{fill:#EE2E24;}
	.st6{fill:#434343;}
	.st7{fill:#BB2026;}
	.st8{fill:#FFFFFF;stroke:#BB2026;stroke-width:2;stroke-miterlimit:10;}
	.st9{font-family:'Stencil',serif;}
	.st10{font-size:110px;}
</style>
<rect x="-2.3" y="-2.3" class="st0" width="1024" height="1024"/>
<g>
	<path class="st1" d="M219.3,830.28l-2.55,2.81l-41.36-30.13l113.87-191.23l3.83-21.7l29.11-24.51
		c-12.82-56.6-21.71-108.59-24.81-153.81l96.05,35.6l28.72,17.36l-34.42-37.31c-37.32-13.22-73.81-26.38-90.56-38.26
		c-2.44-11.48-1.99-26.8-0.05-37.79l-24.08-23.61l-0.16-4.18l28.62-10.11c3.21-13.71,8.63-24.07,14.55-34.6h95.74l92.94,127.15
		v218.55L485.6,762.62l11.49,33.19v22.18l-27.37-22.89l-62.89-0.82l-3.69-10.04c-6.34-17.25-24.89-26.7-42.58-21.7l-120.8,34.14
		C225.2,800.8,216.27,815.45,219.3,830.28L219.3,830.28z"/>
	<path class="st1" d="M334.83,267.62h75.83l39.83-43.66l-1.91-4.21h-91.02c-3.41,0-6.44,2.14-7.59,5.35L334.83,267.62z"/>
	<path class="st1" d="M373.89,171.49h91.15v39.45H367l-3.53-3.53c-1.92-1.92-2.49-4.81-1.45-7.32L373.89,171.49z"/>
	<path class="st1" d="M804.81,830.28l2.55,2.81l41.36-30.13L734.85,611.72l-3.83-21.7l-29.11-24.51
		c12.82-56.6,21.71-108.59,24.81-153.81l-96.05,35.6l-28.72,17.36l34.42-37.31c37.32-13.22,73.81-26.38,90.56-38.26
		c2.44-11.48,1.99-26.8,0.05-37.79l24.08-23.61l0.16-4.18l-28.62-10.11c-3.21-13.71-8.63-24.07-14.55-34.6H612.3l-92.94,127.15
		v218.55l19.15,138.13l-11.49,33.19v22.18l27.37-22.89l62.89-0.82l3.69-10.04c6.34-17.25,24.89-26.7,42.58-21.7l120.8,34.14
		C798.91,800.8,807.83,815.45,804.81,830.28L804.81,830.28z"/>
	<path class="st1" d="M689.28,267.62h-75.83l-39.83-43.66l1.91-4.21h91.02c3.41,0,6.44,2.14,7.59,5.35L689.28,267.62z"/>
	<path class="st1" d="M650.21,171.49h-91.15v39.45h98.04l3.53-3.53c1.92-1.92,2.49-4.81,1.45-7.32L650.21,171.49z"/>
	<polygon class="st1" points="541.32,164.15 552.3,172.06 552.3,219.74 539.66,231.17 484.45,231.17 471.81,219.74 471.81,172.06
		482.79,164.15 	"/>
</g>
<g>
	<g>
		<polygon class="st2" points="735.05,935.13 935.8,935.13 935.8,645.88 911.93,622 1005.6,531.25 1005.6,495.03 912.33,403.72
			936.37,379.68 936.37,90.85 543.93,90.85 531.93,102.85 924.37,102.85 924.37,374.71 895.27,403.81 993.6,500.08 993.6,526.17
			894.82,621.87 923.8,650.85 923.8,923.13 735.05,923.13 		"/>
	</g>
	<g>
		<polygon class="st2" points="288.87,935.13 88.13,935.13 88.13,645.88 112,622 18.33,531.25 18.33,495.03 111.59,403.72
			87.55,379.68 87.55,90.85 480,90.85 492,102.85 99.55,102.85 99.55,374.71 128.65,403.81 30.33,500.08 30.33,526.17
			129.11,621.87 100.13,650.85 100.13,923.13 288.87,923.13 		"/>
	</g>
</g>
<g>
	<path class="st3" d="M861.55,78.2c1.84,22.49,11.93,41.39,28.88,57.49c15.81,15.03,36.17,24.33,56.81,26.17v319.26l-31.83,31.83
		l32.18,32.18v320.48c-22.62,1.7-43.8,11.06-60.29,26.79c-16.53,15.76-26.39,36.05-28.24,57.78H753.64v15h120.1v-7.5
		c0-41.93,37.25-77.35,81.35-77.35h7.5V538.92l-25.96-25.96l25.62-25.62V147.2h-7.5c-37.91,0-78.5-29.54-78.5-76.5v-7.5H147.76v7.5
		c0,46.96-40.59,76.5-78.5,76.5h-7.5v340.13l25.62,25.62l-25.96,25.96v341.42h7.5c44.1,0,81.35,35.42,81.35,77.35v7.5h120.1v-15
		H164.95c-1.85-21.73-11.71-42.01-28.24-57.78c-16.49-15.73-37.67-25.09-60.29-26.79V545.13l32.18-32.18l-31.83-31.83V161.87
		c20.64-1.83,41-11.14,56.81-26.17c16.95-16.11,27.04-35,28.88-57.49C271.19,78.2,752.81,78.2,861.55,78.2z"/>
</g>
<g>
	<g>
		<polygon class="st4" points="1005.6,482.66 979.6,455.08 979.6,44.49 581.9,44.49 512.74,113.64 444.34,45.23 44.51,45.23
			44.51,457.08 18.51,482.66 18.51,19.23 455.11,19.23 512.74,76.87 571.13,18.49 1005.6,18.49 		"/>
	</g>
	<g>
		<polygon class="st4" points="280.06,1008 18.51,1008 18.51,543.51 44.51,570 44.51,981.14 179.34,981.14 260.34,832.7
			309.64,817.99 224.72,981.14 249.04,981.14 341.28,808.55 391.89,793.45 377.22,821.6 477.94,821.6 512.29,849.49 546.35,821.6
			647.06,821.6 632.21,793.45 682.83,808.55 775.06,981.14 799.38,981.14 714.47,817.99 763.97,833.09 844.77,981.14 979.6,981.14
			979.6,570 1005.6,543.51 1005.6,1008 744.04,1008 720.3,962.45 303.81,962.45 		"/>
		<path class="st4" d="M331.17,909.96"/>
	</g>
</g>
<g>
	<g>
		<path class="st5" d="M512.18,316.15c-1.65,0-3.2-0.64-4.37-1.81l-25.23-25.23c-1.17-1.17-1.81-2.73-1.81-4.39
			c0-1.66,0.65-3.21,1.83-4.38l25.34-25.12c1.16-1.15,2.71-1.78,4.35-1.78c1.66,0,3.21,0.64,4.37,1.8l25.12,25.11
			c2.41,2.41,2.41,6.33,0,8.74l-25.23,25.23C515.38,315.51,513.83,316.15,512.18,316.15z M488.82,284.75l23.36,23.36l23.37-23.37
			l-23.26-23.26L488.82,284.75z"/>
		<path d="M512.3,255.7c1.05,0,2.04,0.41,2.78,1.14l25.12,25.11c0.74,0.74,1.15,1.73,1.15,2.78c0,1.05-0.41,2.04-1.15,2.78
			l-25.23,25.23c-0.75,0.75-1.72,1.15-2.78,1.15c-1.07,0-2.03-0.4-2.78-1.15l-25.23-25.23c-0.76-0.76-1.15-1.72-1.15-2.79
			c0-1.07,0.4-2.03,1.16-2.78l25.34-25.12C510.26,256.1,511.25,255.7,512.3,255.7 M512.18,311.29l3.18-3.18l20.19-20.19l3.18-3.18
			l-3.18-3.18l-20.08-20.08l-3.17-3.17l-3.18,3.15l-20.28,20.1l-3.21,3.18l3.2,3.2L509,308.11L512.18,311.29 M512.3,251.2
			c-2.15,0-4.3,0.81-5.94,2.44l-25.34,25.12c-1.6,1.59-2.49,3.71-2.5,5.97s0.87,4.38,2.47,5.98l25.23,25.23
			c1.59,1.59,3.71,2.47,5.96,2.47s4.37-0.88,5.96-2.47l25.23-25.23c3.29-3.29,3.29-8.64,0-11.93l-25.12-25.11
			C516.62,252.02,514.46,251.2,512.3,251.2L512.3,251.2z M512.18,304.93l-20.17-20.17l20.28-20.1l20.08,20.08L512.18,304.93
			L512.18,304.93z"/>
	</g>
</g>
<g>
	<polygon class="st0" points="433.77,519.04 376.57,469 362.02,481.51 369.33,495.57 	"/>
	<polygon class="st0" points="368.66,522.11 360.23,530.53 370.45,550.45 453.43,561.68 	"/>
	<polygon class="st0" points="322.7,654.36 290.28,715.89 306.49,712.63 339.01,651.62 	"/>
	<polygon class="st0" points="368.44,646.68 340.64,705.76 357.23,702.42 382.19,644.38 	"/>
	<polygon class="st0" points="409.71,639.76 388.11,696.2 404.95,692.81 423.46,637.45 	"/>
	<polygon class="st0" points="450.11,632.28 435.77,686.61 450.11,683.72 464.15,630.62 	"/>
	<polygon class="st0" points="590.34,519.04 647.53,469 662.09,481.51 654.78,495.57 	"/>
	<polygon class="st0" points="655.45,522.11 663.87,530.53 653.66,550.45 570.68,561.68 	"/>
	<polygon class="st0" points="701.4,654.36 733.83,715.89 717.62,712.63 685.09,651.62 	"/>
	<polygon class="st0" points="655.66,646.68 683.47,705.76 666.87,702.42 641.92,644.38 	"/>
	<polygon class="st0" points="614.39,639.76 636,696.2 619.16,692.81 600.65,637.45 	"/>
	<polygon class="st0" points="574,632.28 588.33,686.61 574,683.72 559.96,630.62 	"/>
</g>
<g>
	<g>
		<path class="st6" d="M479.23,321.47c-2.21,0-4.21-0.83-5.78-2.39l-28.84-28.84c-2.25-2.25-3.34-4.15-3.33-5.81
			c0.01-1.64,1.1-3.52,3.33-5.74l28.84-28.84c1.56-1.56,3.56-2.39,5.78-2.39l0.1,0c2.2,0.03,4.24,0.92,5.77,2.5
			c2.27,2.65,4.81,4.04,7.73,4.23c-0.15,1.11-0.04,2.31,0.49,3.59l-6,5.7c-0.87-0.34-1.76-0.51-2.67-0.51c-0.14,0-0.27,0-0.41,0.01
			c0.01-0.2,0.01-0.4,0-0.6c-0.08-3.02-2.56-5.39-5.66-5.39c-1.52,0-2.96,0.59-4.03,1.67l-25.8,25.8l25.8,25.82
			c1.08,1.08,2.51,1.67,4.03,1.67c3.1,0,5.59-2.37,5.66-5.39c0.01-0.2,0-0.4,0-0.6c0.14,0.01,0.27,0.01,0.41,0.01
			c0.91,0,1.8-0.17,2.67-0.51l6,5.7c-0.53,1.28-0.64,2.48-0.49,3.59c-2.93,0.2-5.46,1.59-7.73,4.23c-1.52,1.58-3.57,2.47-5.77,2.5
			L479.23,321.47z"/>
		<path d="M479.23,249.96L479.23,249.96l0.07,0c1.53,0.02,2.89,0.6,3.96,1.69c2.09,2.41,4.46,3.97,7.09,4.66
			c0.03,0.24,0.07,0.48,0.13,0.73l-3.82,3.63c-0.04-0.01-0.08-0.02-0.12-0.02c-0.85-3.56-4.06-6.16-7.95-6.16
			c-2.19,0-4.25,0.85-5.8,2.4l-24.04,24.04l-3.53,3.53l3.53,3.54l24.04,24.05c1.55,1.55,3.61,2.4,5.8,2.4c3.88,0,7.1-2.6,7.95-6.16
			c0.04-0.01,0.08-0.02,0.12-0.02l3.82,3.63c-0.05,0.25-0.1,0.49-0.13,0.73c-2.63,0.69-5,2.25-7.09,4.66
			c-1.06,1.08-2.43,1.67-3.95,1.69l-0.07,0c-1.54,0-2.92-0.57-4.01-1.66l-28.84-28.84c-1.68-1.68-2.6-3.11-2.59-4.03
			c0-0.53,0.35-1.74,2.59-3.99l28.84-28.84C476.31,250.53,477.7,249.96,479.23,249.96 M479.23,244.96c-2.87,0-5.52,1.1-7.54,3.12
			l-28.84,28.84c-5.34,5.34-5.48,9.61,0,15.09l28.84,28.84c2.02,2.02,4.67,3.12,7.54,3.12c0.04,0,0.09,0,0.14,0
			c2.9-0.04,5.6-1.22,7.59-3.32c2.08-2.44,4.23-3.44,6.61-3.44c1.02,0,2.08,0.18,3.2,0.51c-1.85-2.82-1.98-4.7-0.32-7.07l-8.7-8.26
			c-1.04,0.74-2.07,1.07-3.09,1.07c-1.31,0-2.59-0.55-3.86-1.49c0.63,1.59,0.99,3.11,0.96,4.51c-0.05,1.81-1.58,2.96-3.16,2.96
			c-0.8,0-1.62-0.29-2.27-0.94l-24.04-24.05l24.04-24.04c0.65-0.65,1.46-0.94,2.27-0.94c1.59,0,3.12,1.15,3.16,2.96
			c0.04,1.4-0.33,2.92-0.96,4.51c1.27-0.94,2.56-1.49,3.86-1.49c1.02,0,2.04,0.33,3.09,1.07l8.7-8.26
			c-1.66-2.37-1.53-4.24,0.32-7.07c-1.11,0.33-2.18,0.51-3.2,0.51c-2.38,0-4.53-0.99-6.61-3.44c-2-2.1-4.69-3.28-7.59-3.32
			C479.32,244.96,479.28,244.96,479.23,244.96L479.23,244.96z"/>
	</g>
</g>
<polygon class="st0" points="358.72,857.09 331.17,909.96 692.94,909.96 665.57,857.09 "/>
<g>
	<path class="st7" d="M155.54,584.71c-20.51,0-37.2-16.69-37.2-37.2v-69.05c0-20.51,16.69-37.2,37.2-37.2h713.3
		c20.51,0,37.2,16.69,37.2,37.2v69.05c0,20.51-16.69,37.2-37.2,37.2H155.54z"/>
	<path class="st0" d="M868.84,448.27c16.68,0,30.2,13.52,30.2,30.2v69.05c0,16.68-13.52,30.2-30.2,30.2h-713.3
		c-16.68,0-30.2-13.52-30.2-30.2v-69.05c0-16.68,13.52-30.2,30.2-30.2H868.84 M868.84,434.27h-713.3c-24.37,0-44.2,19.83-44.2,44.2
		v69.05c0,24.37,19.83,44.2,44.2,44.2h713.3c24.37,0,44.2-19.83,44.2-44.2v-69.05C913.04,454.09,893.21,434.27,868.84,434.27
		L868.84,434.27z"/>
</g>
<g>
	<text transform="matrix(0.9765 0 0 1 145.5869 547.3418)" class="st8 st9 st10">MIND THE GAP</text>
</g>
<g>
	<g>
		<path class="st6" d="M544.77,321.47c-2.2-0.03-4.24-0.92-5.77-2.5c-2.27-2.65-4.81-4.04-7.73-4.23c0.15-1.11,0.04-2.31-0.49-3.59
			l6-5.7c0.87,0.34,1.76,0.51,2.67,0.51c0.14,0,0.27,0,0.41-0.01c-0.01,0.2-0.01,0.4,0,0.6c0.08,3.03,2.56,5.39,5.66,5.39
			c1.52,0,2.96-0.59,4.03-1.67l25.8-25.82l-25.8-25.8c-1.08-1.08-2.51-1.67-4.03-1.67c-3.1,0-5.59,2.37-5.66,5.39c0,0.2,0,0.4,0,0.6
			c-0.14-0.01-0.27-0.01-0.41-0.01c-0.91,0-1.8,0.17-2.67,0.51l-6-5.7c0.53-1.28,0.64-2.48,0.49-3.59c2.93-0.2,5.46-1.59,7.73-4.23
			c1.52-1.58,3.57-2.47,5.77-2.5l0.1,0c2.21,0,4.21,0.83,5.78,2.39l28.84,28.84c2.23,2.23,3.31,4.11,3.33,5.74
			c0.01,1.66-1.08,3.56-3.33,5.81l-28.84,28.84c-1.56,1.56-3.56,2.39-5.77,2.39L544.77,321.47z"/>
		<path d="M544.87,249.96c1.54,0,2.92,0.57,4.01,1.66l28.84,28.84c2.25,2.25,2.59,3.47,2.59,3.99c0.01,0.92-0.91,2.35-2.59,4.03
			l-28.84,28.84c-1.09,1.09-2.47,1.66-4.01,1.66l-0.07,0c-1.53-0.02-2.89-0.6-3.96-1.69c-2.09-2.41-4.46-3.97-7.09-4.66
			c-0.03-0.24-0.07-0.48-0.13-0.73l3.82-3.63c0.04,0.01,0.08,0.02,0.12,0.02c0.85,3.56,4.06,6.16,7.95,6.16
			c2.19,0,4.25-0.85,5.8-2.4l24.04-24.05l3.53-3.54l-3.53-3.53l-24.04-24.04c-1.55-1.55-3.61-2.4-5.8-2.4c-3.88,0-7.1,2.6-7.95,6.16
			c-0.04,0.01-0.08,0.02-0.12,0.02l-3.82-3.63c0.05-0.25,0.1-0.49,0.13-0.73c2.63-0.69,5-2.25,7.09-4.66
			c1.06-1.08,2.43-1.67,3.95-1.69L544.87,249.96 M544.87,244.96c-0.05,0-0.09,0-0.14,0c-2.9,0.04-5.6,1.22-7.59,3.32
			c-2.08,2.44-4.23,3.44-6.61,3.44c-1.02,0-2.08-0.18-3.2-0.51c1.85,2.82,1.98,4.7,0.32,7.07l8.7,8.26
			c1.04-0.74,2.07-1.07,3.09-1.07c1.31,0,2.59,0.55,3.86,1.49c-0.63-1.59-0.99-3.11-0.96-4.51c0.05-1.81,1.58-2.96,3.16-2.96
			c0.8,0,1.62,0.29,2.27,0.94l24.04,24.04l-24.04,24.05c-0.65,0.65-1.46,0.94-2.27,0.94c-1.59,0-3.12-1.15-3.16-2.96
			c-0.04-1.4,0.33-2.92,0.96-4.51c-1.27,0.94-2.56,1.49-3.86,1.49c-1.02,0-2.04-0.33-3.09-1.07l-8.7,8.26
			c1.66,2.37,1.53,4.24-0.32,7.07c1.11-0.33,2.18-0.51,3.2-0.51c2.38,0,4.53,0.99,6.61,3.44c2,2.1,4.69,3.28,7.59,3.32
			c0.04,0,0.09,0,0.14,0c2.87,0,5.52-1.1,7.54-3.12l28.84-28.84c5.48-5.48,5.34-9.75,0-15.09l-28.84-28.84
			C550.4,246.06,547.74,244.96,544.87,244.96L544.87,244.96z"/>
	</g>
</g>
</svg>
