<?xml version="1.0" encoding="utf-8"?>
<!-- Generator: Adobe Illustrator 25.0.1, SVG Export Plug-In . SVG Version: 6.00 Build 0)  -->
<svg id="Layer_2" xmlns="http://www.w3.org/2000/svg" x="0px" y="0px"
	 viewBox="0 0 1024 1024" xml:space="preserve">
<style type="text/css">
	.st0{fill:#D8D8D8;}
	.st1{fill:#566A3A;}
	.st2{fill:#757C59;}
	.st3{fill:#D8D8D8;stroke:#566A3A;stroke-width:5;stroke-miterlimit:10;}
</style>
<rect class="st0" width="1024" height="1024"/>
<g>
	<path class="st1" d="M219.3,830.28l-2.55,2.81l-41.36-30.13l113.87-191.23l3.83-21.7l29.11-24.51
		c-12.82-56.6-21.71-108.59-24.81-153.81l96.05,35.6l28.72,17.36l-34.42-37.31c-37.32-13.22-73.81-26.38-90.56-38.26
		c-2.44-11.48-1.99-26.8-0.05-37.79l-24.08-23.61l-0.16-4.18l28.62-10.11c3.21-13.71,8.63-24.07,14.55-34.6h95.74l92.94,127.15
		v218.55L485.6,762.62l11.49,33.19v22.18l-27.37-22.89l-62.89-0.82l-3.69-10.04c-6.34-17.25-24.89-26.7-42.58-21.7l-120.8,34.14
		C225.2,800.8,216.27,815.45,219.3,830.28L219.3,830.28z"/>
	<path class="st1" d="M334.83,267.62h75.83l39.83-43.66l-1.91-4.21h-91.02c-3.41,0-6.44,2.14-7.59,5.35L334.83,267.62z"/>
	<path class="st1" d="M373.89,171.49h91.15v39.45H367l-3.53-3.53c-1.92-1.92-2.49-4.81-1.45-7.32L373.89,171.49z"/>
	<path class="st1" d="M804.81,830.28l2.55,2.81l41.36-30.13L734.85,611.72l-3.83-21.7l-29.11-24.51
		c12.82-56.6,21.71-108.59,24.81-153.81l-96.05,35.6l-28.72,17.36l34.42-37.31c37.32-13.22,73.81-26.38,90.56-38.26
		c2.44-11.48,1.99-26.8,0.05-37.79l24.08-23.61l0.16-4.18l-28.62-10.11c-3.21-13.71-8.63-24.07-14.55-34.6H612.3l-92.94,127.15
		v218.55l19.15,138.13l-11.49,33.19v22.18l27.37-22.89l62.89-0.82l3.69-10.04c6.34-17.25,24.89-26.7,42.58-21.7l120.8,34.14
		C798.91,800.8,807.83,815.45,804.81,830.28L804.81,830.28z"/>
	<path class="st1" d="M689.28,267.62h-75.83l-39.83-43.66l1.91-4.21h91.02c3.41,0,6.44,2.14,7.59,5.35L689.28,267.62z"/>
	<path class="st1" d="M650.21,171.49h-91.15v39.45h98.04l3.53-3.53c1.92-1.92,2.49-4.81,1.45-7.32L650.21,171.49z"/>
	<polygon class="st1" points="541.32,164.15 552.3,172.06 552.3,219.74 539.66,231.17 484.45,231.17 471.81,219.74 471.81,172.06
		482.79,164.15 	"/>
</g>
<g>
	<g>
		<polygon class="st2" points="735.05,935.13 935.8,935.13 935.8,645.88 911.93,622 1005.6,531.25 1005.6,495.03 912.33,403.72
			936.37,379.68 936.37,90.85 543.93,90.85 531.93,102.85 924.37,102.85 924.37,374.71 895.27,403.81 993.6,500.08 993.6,526.17
			894.82,621.87 923.8,650.85 923.8,923.13 735.05,923.13 		"/>
	</g>
	<g>
		<polygon class="st2" points="288.87,935.13 88.13,935.13 88.13,645.88 112,622 18.33,531.25 18.33,495.03 111.59,403.72
			87.55,379.68 87.55,90.85 480,90.85 492,102.85 99.55,102.85 99.55,374.71 128.65,403.81 30.33,500.08 30.33,526.17
			129.11,621.87 100.13,650.85 100.13,923.13 288.87,923.13 		"/>
	</g>
</g>
<g>
	<path class="st3" d="M861.55,78.2c1.84,22.49,11.93,41.39,28.88,57.49c15.81,15.03,36.17,24.33,56.81,26.17v319.26l-31.83,31.83
		l32.18,32.18v320.48c-22.62,1.7-43.8,11.06-60.29,26.79c-16.53,15.76-26.39,36.05-28.24,57.78H753.64v15h120.1v-7.5
		c0-41.93,37.25-77.35,81.35-77.35h7.5V538.92l-25.96-25.96l25.62-25.62V147.2h-7.5c-37.91,0-78.5-29.54-78.5-76.5v-7.5H147.76v7.5
		c0,46.96-40.59,76.5-78.5,76.5h-7.5v340.13l25.62,25.62l-25.96,25.96v341.42h7.5c44.1,0,81.35,35.42,81.35,77.35v7.5h120.1v-15
		H164.95c-1.85-21.73-11.71-42.01-28.24-57.78c-16.49-15.73-37.67-25.09-60.29-26.79V545.13l32.18-32.18l-31.83-31.83V161.87
		c20.64-1.83,41-11.14,56.81-26.17c16.95-16.11,27.04-35,28.88-57.49C271.19,78.2,752.81,78.2,861.55,78.2z"/>
</g>
<g>
	<polygon class="st1" points="1005.6,482.66 979.6,455.08 979.6,44.49 581.9,44.49 512.74,113.64 444.34,45.23 44.51,45.23
		44.51,457.08 18.51,482.66 18.51,19.23 455.11,19.23 512.74,76.87 571.13,18.49 1005.6,18.49 	"/>
</g>
<g>
	<polygon class="st1" points="280.06,1008 18.51,1008 18.51,543.51 44.51,570 44.51,981.14 179.34,981.14 260.34,832.7
		309.64,817.99 224.72,981.14 249.04,981.14 341.28,808.55 391.89,793.45 377.22,821.6 477.94,821.6 512.29,849.49 546.35,821.6
		647.06,821.6 632.21,793.45 682.83,808.55 775.06,981.14 799.38,981.14 714.47,817.99 763.97,833.09 844.77,981.14 979.6,981.14
		979.6,570 1005.6,543.51 1005.6,1008 744.04,1008 720.3,962.45 303.81,962.45 	"/>
	<path class="st1" d="M331.17,909.96"/>
</g>
<g>
	<path class="st1" d="M512.18,318.4c-2.25,0-4.37-0.88-5.96-2.47l-25.23-25.23c-1.6-1.6-2.47-3.72-2.47-5.98s0.89-4.38,2.5-5.97
		l25.34-25.12c3.29-3.26,8.63-3.25,11.9,0.03l25.12,25.11c3.29,3.29,3.29,8.64,0,11.93l-25.23,25.23
		C516.55,317.53,514.43,318.4,512.18,318.4z M492.01,284.76l20.17,20.17l20.19-20.19l-20.08-20.08L492.01,284.76z"/>
</g>
<g>
	<path class="st1" d="M439.74,284.79c-0.09-2.84,0.95-5.71,3.12-7.88l28.84-28.84c2.05-2.05,4.75-3.16,7.68-3.12
		c2.9,0.04,5.6,1.22,7.59,3.32c2.97,3.49,6.1,4.02,9.8,2.92c-1.85,2.82-1.98,4.7-0.32,7.07l-8.7,8.26
		c-2.39-1.68-4.69-1.25-6.95,0.42c0.63-1.59,0.99-3.11,0.96-4.51c-0.07-2.72-3.5-3.94-5.43-2.02l-24.04,24.04v0.01l24.04,24.04
		c1.93,1.93,5.36,0.71,5.43-2.02c0.04-1.4-0.33-2.92-0.96-4.51c2.26,1.67,4.56,2.1,6.95,0.42l8.7,8.26
		c-1.66,2.37-1.53,4.24,0.32,7.07c-3.7-1.1-6.84-0.57-9.8,2.92c-2,2.1-4.69,3.28-7.59,3.32c-2.92,0.04-5.63-1.07-7.68-3.12
		l-28.84-28.84c-2.17-2.17-3.21-5.04-3.12-7.88"/>
</g>
<g>
	<polygon class="st0" points="433.77,519.04 376.57,469 362.02,481.51 369.33,495.57 	"/>
	<polygon class="st0" points="368.66,522.11 360.23,530.53 370.45,550.45 453.43,561.68 	"/>
	<polygon class="st0" points="322.7,654.36 290.28,715.89 306.49,712.63 339.01,651.62 	"/>
	<polygon class="st0" points="368.44,646.68 340.64,705.76 357.23,702.42 382.19,644.38 	"/>
	<polygon class="st0" points="409.71,639.76 388.11,696.2 404.95,692.81 423.46,637.45 	"/>
	<polygon class="st0" points="450.11,632.28 435.77,686.61 450.11,683.72 464.15,630.62 	"/>
	<polygon class="st0" points="590.34,519.04 647.53,469 662.09,481.51 654.78,495.57 	"/>
	<polygon class="st0" points="655.45,522.11 663.87,530.53 653.66,550.45 570.68,561.68 	"/>
	<polygon class="st0" points="701.4,654.36 733.83,715.89 717.62,712.63 685.09,651.62 	"/>
	<polygon class="st0" points="655.66,646.68 683.47,705.76 666.87,702.42 641.92,644.38 	"/>
	<polygon class="st0" points="614.39,639.76 636,696.2 619.16,692.81 600.65,637.45 	"/>
	<polygon class="st0" points="574,632.28 588.33,686.61 574,683.72 559.96,630.62 	"/>
</g>
<g>
	<path class="st1" d="M584.37,284.79c0.09-2.84-0.95-5.71-3.12-7.88l-28.84-28.84c-2.05-2.05-4.75-3.16-7.68-3.12
		c-2.9,0.04-5.6,1.22-7.59,3.32c-2.97,3.49-6.1,4.02-9.8,2.92c1.85,2.82,1.98,4.7,0.32,7.07l8.7,8.26c2.39-1.68,4.69-1.25,6.95,0.42
		c-0.63-1.59-0.99-3.11-0.96-4.51c0.07-2.72,3.5-3.94,5.43-2.02l24.04,24.04v0.01l-24.04,24.04c-1.93,1.93-5.36,0.71-5.43-2.02
		c-0.04-1.4,0.33-2.92,0.96-4.51c-2.26,1.67-4.56,2.1-6.95,0.42l-8.7,8.26c1.66,2.37,1.53,4.24-0.32,7.07
		c3.7-1.1,6.84-0.57,9.8,2.92c2,2.1,4.69,3.28,7.59,3.32c2.92,0.04,5.63-1.07,7.68-3.12l28.84-28.84c2.17-2.17,3.21-5.04,3.12-7.88"
		/>
</g>
<polygon class="st0" points="358.72,857.09 331.17,909.96 692.94,909.96 665.57,857.09 "/>
</svg>
